<svg width="60" height="68" viewBox="0 0 60 68" fill="none" xmlns="http://www.w3.org/2000/svg">
<ellipse cx="30" cy="38.0006" rx="30" ry="30.0006" fill="white"/>
<path d="M16.3 57.8C14.7 57.3333 13.5833 56.8667 12.95 56.4C12.35 55.9333 12.05 55.35 12.05 54.65C12.05 54.1167 12.2 53.3667 12.5 52.4C12.8 51.4333 13.2333 50.3 13.8 49C14.4 47.6667 15.1 46.2 15.9 44.6C16.7333 43 17.6667 41.2833 18.7 39.45C17.8333 39.4167 17.05 39.4 16.35 39.4C15.6833 39.3667 15.1333 39.35 14.7 39.35C14.9 38.85 15.4667 38.4167 16.4 38.05C17.3333 37.6833 18.5667 37.3667 20.1 37.1C21.4 34.9333 22.7833 32.8667 24.25 30.9C25.75 28.9333 27.25 27.1333 28.75 25.5C30.25 23.8333 31.75 22.3833 33.25 21.15C34.75 19.8833 36.1833 18.8833 37.55 18.15C37.5833 17.9167 37.6 17.7167 37.6 17.55C37.6333 17.3833 37.65 17.2667 37.65 17.2C38.1167 17.2 38.7333 17.3167 39.5 17.55C40.3 17.7833 41.0667 18.0667 41.8 18.4C42.5667 18.7333 43.2333 19.0833 43.8 19.45C44.4 19.7833 44.7333 20.0667 44.8 20.3C43.7 22.2333 42.6167 25.1333 41.55 29C40.4833 32.8333 39.6 37.4333 38.9 42.8C38.7333 44.1333 38.5833 45.65 38.45 47.35C38.35 49.05 38.3 50.95 38.3 53.05C38.3 53.7833 38.3 54.5333 38.3 55.3C38.3 56.0667 38.3333 56.8667 38.4 57.7C38.3333 57.7333 38.2667 57.75 38.2 57.75C38.1333 57.75 38 57.75 37.8 57.75C37.3333 57.75 36.7833 57.6667 36.15 57.5C35.55 57.3667 34.95 57.1833 34.35 56.95C33.7833 56.75 33.2833 56.5167 32.85 56.25C32.45 55.9833 32.2 55.75 32.1 55.55C32.0667 55.1167 32.05 54.6833 32.05 54.25C32.05 53.85 32.05 53.4167 32.05 52.95C32.05 50.8833 32.1167 48.7833 32.25 46.65C32.4167 44.5167 32.6833 42.3167 33.05 40.05C32.5833 40.0167 31.9667 39.9833 31.2 39.95C30.4333 39.8833 29.5667 39.8333 28.6 39.8C27.6667 39.7667 26.65 39.7333 25.55 39.7C24.4833 39.6333 23.4333 39.5833 22.4 39.55C21.6 41.05 20.85 42.55 20.15 44.05C19.45 45.5167 18.85 47 18.35 48.5C17.7833 50.1 17.3167 51.7 16.95 53.3C16.6167 54.9 16.4 56.4 16.3 57.8ZM35.6 27.75C35.7333 27.2833 35.8833 26.65 36.05 25.85C36.25 25.0167 36.4333 24.15 36.6 23.25C35.7667 23.55 34.8333 24.1 33.8 24.9C32.8 25.7 31.75 26.7 30.65 27.9C29.5833 29.0667 28.4833 30.4 27.35 31.9C26.25 33.3667 25.1833 34.9333 24.15 36.6C26.95 36.3667 30.1333 36.2167 33.7 36.15C33.9667 34.75 34.25 33.3667 34.55 32C34.8833 30.6 35.2333 29.1833 35.6 27.75Z" fill="#DF3DAB"/>
</svg>
